/* XPM */
static char *cGl4aWwtZnJhbWUtMCUyODUlMjk_[] = {
/* columns rows colors chars-per-pixel */
"32 32 89 1 ",
"  c #3C683B",
". c #377B33",
"X c #377B35",
"o c #357837",
"O c #347A36",
"+ c #387B35",
"@ c #3A7B35",
"# c #3E7D34",
"$ c #F44336",
"% c #E91E63",
"& c #428232",
"* c #569856",
"= c #569857",
"- c #579857",
"; c #549E56",
": c #5F9957",
"> c #599459",
", c #4EAA4F",
"< c #4AAE4E",
"1 c #4AAF4E",
"2 c #4BAF4F",
"3 c #4DAF4F",
"4 c #54AE4D",
"5 c #55AD4E",
"6 c #4EB14A",
"7 c #4AB14D",
"8 c #4BB34D",
"9 c #4BB14E",
"0 c #4CB34D",
"q c #4DB14F",
"w c #51B34B",
"e c #54B34B",
"r c #57B34B",
"t c #51B24E",
"y c #54B14C",
"u c #54B24E",
"i c #54B34E",
"p c #57B44D",
"a c #5BB44B",
"s c #5FB64B",
"d c #5AB34C",
"f c #5AB34E",
"g c #5BB54F",
"h c #5CB74D",
"j c #5EB64E",
"k c #4EA650",
"l c #4DAC50",
"z c #4CAE50",
"x c #4CAF50",
"c c #50A752",
"v c #54A154",
"b c #54A655",
"n c #5BA254",
"m c #52AB51",
"M c #50A852",
"N c #56AE50",
"B c #53AA54",
"V c #5DAD50",
"C c #4CB050",
"Z c #4DB050",
"A c #54B150",
"S c #59B150",
"D c #60B64E",
"F c #63B74E",
"G c #6BBB4B",
"H c #6DBB4A",
"J c #6CBB4B",
"K c #6FBC4C",
"L c #79B34F",
"P c #78B54E",
"I c #7BB44F",
"U c #75BD4B",
"Y c #76BA4D",
"T c #71BC4C",
"R c #75BD4C",
"E c #78BD4B",
"W c #7ABD4B",
"Q c #60A753",
"! c #67A552",
"~ c #7BC04A",
"^ c #FFC400",
"/ c #FFEB3B",
"( c #83C14A",
") c #83C14B",
"_ c #84C14A",
"` c #85C24A",
"' c #8BC34A",
"] c #FFD740",
"[ c white",
/* pixels */
"xxxgxuZx9xAfxxuuxJmxAxZxxx9g9q23",
"xxxZRq9qZfxxqq3R,k,c*x,xftgqq29g",
"xx''JxqxZxRD2uRxxD*Rxufu3399xx29",
"x'(t9xZx9qxZxZxqF''xLV!5DUq3x232",
"C'Zi99qZZ9xxRju'''zCz=(SCqqqxCzq",
"TW9qqqCzxx9xxjAx'xz3C(Y*'Z9zWz9g",
"zG8gtz99qqZx('Dx5'qqCc2'q2$ZZtCq",
"R99(9ZC9qqxDtxxfPY2Z>x'('$/$'tRg",
"ZZii99qq9qhFufxxZbxNIxtD'j$'z'ZR",
"zAZq9999qih~qxm9qxxlxxxmiDjCCz'S",
"txZZ[ZZZ22ggxx^^^^^xxxxxDW2zxZZZ",
"x9Z[/[ZC39qqt^]]]]]^xx3u`g(qxqiZ",
"ZJKC[CCzzzzZ^]]]]]]]^x'ZjSRRxZ9Z",
"ZZZ9CzzCzCC^]]]]^]]]]^xZZ`qxx9RR",
"xxZ99g9zCz^]]]]^Z^]]]]^ZZZx9xxZZ",
"xxzAZ99zzC^]]]]^:^]]]]^xZjUguZ9Z",
"Cz2YZAZZCC^]]]]^B^]]]]^zz(DUxZxx",
"xCz3ZRRJCi^]]]]^b^]]]]^zCzDYxxxx",
"lx;qqxAA9T^]]]]^x^]]]]^3zjxxxuxx",
";xxxZNNt9ZX^]]]]^]]]]^ q'guuqxxx",
"3x*x;3NtZ9o@^]]]]]]]^o.jU3ZAqUxx",
"2>>>22z9qii.#^]]]]]^XX5Qujjjqq93",
"->c>>v222584@o^^^^^@Xttq3353Z'xG",
"Z>:>23;q29w2toooooo@FuuqqqZZZDD9",
"uxZCztqZ`zzAtq&ooo.ttwqq3q3q33qG",
"mxRzjANlxxCRltx~kj3ww6933335332z",
"YzzCZNtxxxxxxRR`TIq3qy%q92utttzC",
"qZCzRmuJxxxxxxxn;utst%/%39ua4qZt",
"xxxxZDZ;;2zGGZ3335tdt4%3qyutt3~`",
"'xxx'RZZCZ9;;zz3ttydudqtqtu9tDqq",
"x'x'ZZZxC99Z9Z32teusuuqx33t9q33Z",
"ZZjxtxxxzCzCzz2qqt9yuuxxq3fUJxZZ"
};
