/* XPM */
static char *cGl4aWwtZnJhbWUtMCUyODElMjk_[] = {
/* columns rows colors chars-per-pixel */
"32 32 81 1 ",
"  c #F44336",
". c #E91E63",
"X c #569856",
"o c #569857",
"O c #579857",
"+ c #549E55",
"@ c #5F9957",
"# c #599459",
"$ c #4EAA4F",
"% c #4DAE4F",
"& c #51AC4F",
"* c #55AD4E",
"= c #4BB24D",
"- c #4BB34D",
"; c #4BB14E",
": c #4CB34D",
"> c #4DB14F",
", c #51B24E",
"< c #54B24E",
"1 c #54B34E",
"2 c #52B44E",
"3 c #57B44D",
"4 c #5AB34E",
"5 c #5CB14F",
"6 c #59B64D",
"7 c #5BB54F",
"8 c #5DB64D",
"9 c #5CB74D",
"0 c #5EB64E",
"q c #4EA650",
"w c #4FAA52",
"e c #4CAF50",
"r c #50A752",
"t c #51A653",
"y c #53A154",
"u c #54A655",
"i c #5FA753",
"p c #5BA254",
"a c #50A852",
"s c #50AC52",
"d c #53AA54",
"f c #58AD52",
"g c #5DAD50",
"h c #5BAB54",
"j c #4CB050",
"k c #4DB050",
"l c #52B150",
"z c #5DB150",
"x c #61B64E",
"c c #63B74E",
"v c #6CB74D",
"b c #6BBB4B",
"n c #6CBB4B",
"m c #6DBB4B",
"M c #68B84D",
"N c #6FBC4C",
"B c #73B34E",
"V c #79B34F",
"C c #78B54E",
"Z c #79B44F",
"A c #7CB54E",
"S c #70BC4B",
"D c #75BF4A",
"F c #70BA4D",
"G c #76BA4D",
"H c #71BC4C",
"J c #75BD4C",
"K c #77BC4C",
"L c #7ABD4B",
"P c #67A552",
"I c #62A354",
"U c #7BC04A",
"Y c #7CC04A",
"T c #FFEB3B",
"R c #83C14A",
"E c #82C24B",
"W c #85C24A",
"Q c #88C34A",
"! c #8BC34A",
"~ c #8BC44A",
"^ c white",
/* pixels */
"eee7e<ke>e,5ee,<kF$ele>%%e;7;;%>",
"eeekJ>;>>4ee>>%J$q$rOe$w<,7;>%;7",
"ee!!bk>eeeJ9%,JekxXJe<4,>>;>ee%;",
"e!R,;ekee>e>kkk>c!!eVgP*xD>;eeee",
";~>,;>kkejeeJ9<!~!eeeXRze>;>eeek",
"FL>>>;eeke;eez<e!ej;eEGX!k>eDe;7",
"kn-7le;;>;kjW!xe$!>ker;!;e kk,k>",
"J;;R>e;;>>jc1ee5CL%k#w!R! T !,J7",
"ekl7;;>>;>9c,4eeese4Ve,x!x !e!eJ",
"e<k;;;;;>19U>>e%eeeweees,x9eee~z",
",ekkejkk;%37s%eeee>%eekkcLkekkkk",
"e;ekkkke>%>>,k+eee>Fee%,W3Rjeklk",
"ebN^eeeeeeekweee%e>Dkj~j7zLDe;>;",
"kk^T^eeeeeek9e#f+eskczjk%Week>JJ",
"eek^>7;eeeeke##Oe+%e!ekkkjee;ekk",
"eeel;k;eee;e!+BO@+J<9~ekk9D4le>e",
"eewJk3kkjkeURU#zdeFeIeeeeWxDeeee",
"eeeekJJH>,k;>,Y5uhseJeeeeexGeeee",
"we+;;js<;DJkk,eessl>4@eeexsee<ee",
"+%ee;f,1;jekllee>5l9Ke#e!4<,keee",
"eeOe+e*:kj;jeJee>ek+exx9D%k<>Dee",
";X##e+kz1+ejJeeeeeexep+i<99x>>>e",
"O#q##yNq;kje>>>>eeJwG%%eee&ek~%b",
"k#@#ek+k,eeke!!s!W!!v>;;%>kekxx;",
"lekee1kkWeeelkx9!c9+y;;;>eeee>>M",
"seJez<lweeeJs,eWt9k-:;.k>eeeee>e",
"Gkeek54eeeeeeJJWFAjj>.T.%eeeeeee",
"ekeeJw<beeeeeeep+l1zkk.ke;eeeke,",
"eeeek7k++eebbkeekeeeeeeek;kkeeYR",
"!eee~Jekke;++eeeeeeeee>;jjkkkxkk",
"e!e!>keee;;kjjeee;%>;kkejekk>jkk",
"ke9e,eeeeeeeeeeejke>keekkk<Dnjjk"
};
