/* XPM */
static char *cGl4aWwtZnJhbWUtMCUyODYlMjk_[] = {
/* columns rows colors chars-per-pixel */
"32 32 60 1 ",
"  c #F44336",
". c #E91E63",
"X c #559C56",
"o c #5F9957",
"O c #599459",
"+ c #4DAB4F",
"@ c #54AD4F",
"# c #4CB14E",
"$ c #53B24F",
"% c #5BB54E",
"& c #4EA650",
"* c #4CAF50",
"= c #46AE5A",
"- c #52A453",
"; c #5BA254",
": c #51A952",
"> c #5DAD50",
", c #4DB050",
"< c #53B151",
"1 c #5AB452",
"2 c #62B74E",
"3 c #6DBB4C",
"4 c #7AB44F",
"5 c #75BD4C",
"6 c #79BD4B",
"7 c #67A552",
"8 c #7DBF51",
"9 c #7BC04A",
"0 c #FFEB3B",
"q c #83C14B",
"w c #8BC34A",
"e c #03AFD7",
"r c #03ADDD",
"t c #08AADF",
"y c #00B6D7",
"u c #02B6D6",
"i c #00BAD4",
"p c #01BAD5",
"a c #00BCD4",
"s c #00B3D8",
"d c #01B3DB",
"f c #05B1DA",
"g c #06B0DB",
"h c #03B4DB",
"j c #01B6DB",
"k c #04B4D9",
"l c #01B2DC",
"z c #04B2DC",
"x c #2096F2",
"c c #2096F3",
"v c #2196F3",
"b c #03A6E2",
"n c #03A5E4",
"m c #01A9E1",
"M c #06A9E2",
"N c #04AAE2",
"B c #00AEE1",
"V c #00AFE3",
"C c #00B0E1",
"Z c white",
/* pixels */
"***%*$,*,,$$,,$$+5&,$+#,,,#%##,,",
"***#5####$,,###5+&*&O*+&$$%####%",
"**ww3,#*,*9%,$5**2X5*$%@####**##",
",wq$#*,,*#**,,#*2ww*4>7@%9##****",
",w#$##,,,,,*52$www**,Xq1*###,**#",
"56####*,,,***1$#w**,*q5Xw,#,5##$",
"*3#%#*##,,**8q1+&w,,*&,w## ##$,#",
"5##q####,+=pppiipap,O&wqw 0 w$51",
"#,$$#####ppayjdsiiaap#$2w2 w,w,5",
"*$,,####aapjdjryyryiaa#&$2%*,*w%",
"$#,,*,,pppydjrterfyyaaa+26,****,",
"*#,,,,,paplddtretryppai%w$q,*,$,",
",33Z**vppjdrrtMetrrysiia%%55*###",
",,Z0Z,vajljrrrrrMrrddyaa,q#<,#55",
"**,Z#$vajfddtrdyrmrrlypp,,+##*,,",
"***$,#vaklldrdrddbmrBypp,25%<*#,",
"***5,<vpprdjredrrbbbCjja+q25,,,*",
"&**,#5vapidryyyrrrmdBdppv#25*,**",
"*,X##,vappjddsffdrrrMzpv,2&,*$**",
"X***,$xvppyrdizrrdrrjdpvw%$$#**,",
",,X*X#@vpppddpffdefjpjav9+#$#5,*",
"#OOO#X:vvpppyyfryypkypvv$%%2#,##",
"OO:OO-5vvapyjppfykpppvv&,*@*,w*3",
"#OoO#+X#$vvvppypappvvv#####,,2%#",
"$*,*,$#,9,*ccvvvvvvv&####***,##3",
":,5*%$<:,**5&$,q&%*###.,#*******",
"5***#1%*****,55q54,,#.0.#******,",
"#*,*5&$3****,,,;X<<%,,.,*#***,*$",
",**,*%,X-**33,,,#,****,*,#,,**9q",
"w**,w5,,#**X-,,,,,****##,,,#,2#,",
"*w,w#,,**##*,*&,*####,,*,,,,#*,,",
",,%,$,+*********,,,*,,*,,,$53,,,"
};
