/* XPM */
static char *cGl4aWwtZnJhbWUtMCUyODclMjk_[] = {
/* columns rows colors chars-per-pixel */
"32 32 100 2 ",
"   c #744E60",
".  c #F44336",
"X  c #E91E63",
"o  c #8E625E",
"O  c #4DAF4F",
"+  c #51AF4E",
"@  c #4FB04F",
"#  c #5FB547",
"$  c #53B14D",
"%  c #5BB44C",
"&  c #4DA255",
"*  c #4CAF50",
"=  c #4CA15A",
"-  c #47AD5D",
";  c #4AAD5B",
":  c #52A454",
">  c #5AA654",
",  c #53AD53",
"<  c #5BAE55",
"1  c #50A15A",
"2  c #55AD5A",
"3  c #5AAC5D",
"4  c #4FB053",
"5  c #54B152",
"6  c #5CB253",
"7  c #54B05A",
"8  c #5AB359",
"9  c #62B746",
"0  c #65B847",
"q  c #68B946",
"w  c #63B64B",
"e  c #6AB64D",
"r  c #65B84A",
"t  c #6CB94B",
"y  c #75BD46",
"u  c #79BF47",
"i  c #72BB4B",
"p  c #7BBC4C",
"a  c #61AB53",
"s  c #6BAB52",
"d  c #61A55C",
"f  c #63AB5B",
"g  c #6CAE5D",
"h  c #78AD55",
"j  c #75AE5D",
"k  c #63B453",
"l  c #6BB454",
"z  c #67B853",
"x  c #69B854",
"c  c #65B35A",
"v  c #6AB15A",
"b  c #6BB35D",
"n  c #6BB85C",
"m  c #76B653",
"M  c #73B354",
"N  c #73B255",
"B  c #78B750",
"V  c #7BB753",
"C  c #74B850",
"Z  c #77B952",
"A  c #76BB56",
"S  c #7FBB51",
"D  c #7CBB54",
"F  c #7CBC54",
"G  c #72B55E",
"H  c #7AB85A",
"J  c #7ABC5B",
"K  c #559F62",
"L  c #47AC60",
"P  c #45AB65",
"I  c #49AB62",
"U  c #44AA6B",
"Y  c #48AB6A",
"T  c #56AB60",
"R  c #5CAD62",
"E  c #5CB161",
"W  c #40A878",
"Q  c #62A863",
"!  c #66AB61",
"~  c #6DA668",
"^  c #6CB261",
"/  c #7EC052",
"(  c #FFC107",
")  c #86B54D",
"_  c #8DB74C",
"`  c #81BE48",
"'  c #81BC4C",
"]  c #83B853",
"[  c #84BD50",
"{  c #86B956",
"}  c #8EBB53",
"|  c #89C243",
" . c #88C346",
".. c #91C14B",
"X. c #8BC256",
"o. c #D79999",
"O. c #DAB78C",
"+. c #E6B4AC",
"@. c #F2E4C2",
"#. c white",
/* pixels */
"* * O * 4 O O * O O < < * k + * O * O * % 4 % % O O * * O * O * ",
"O * O @ O O O * + O k < a % * % O * % O a e k @ $ * O * * * * * ",
"* @ $ @ + + % + + % a 3 N k , O $ O O k N w l , $ * * * * * O * ",
"$ 4 t t * % % 6 e z l ! ~ e f , % $ ; V H 2 B % % * * * ; O * * ",
"O t i , . w t m | M S j j m g w w , e l ^ l b l  .l ; @ X O O O ",
"O i t . ( . Z ..u y ] N } j g i l % w E E c G ` D g i X ( X * * ",
"% * Z , . c t _ ` e e l V m g g s , < k 3 ; x  .{ 3 2 R X O - O ",
"O O 8 6 # z z t | + e + t B Q f 3 , O O 7 w c k [ d < 7 I $ * O ",
"* * * < $ $ k r 0 # # $ # k v k < o o ; P o o % # g l % L , O O ",
"$ % * * 7 6 6 9 r @ @ 4 * 6 , 2 o @.o * * o @.o * 4 T 8 ; O O O ",
"$ * % O O % $ @ % O O $ $ o o * o @.o o o o @.o * % o o * 5 5 O ",
"% * O O O O 0 $ $ @ O O o @.@.o o O.O.O.O.O.@.@.o o @.@.o 0 $ $ ",
"% @ @ @ $ $ $ @ o o o o o @.@.@.@.O.O.O.O.O.@.@.@.o @.@.o w % # ",
"% @ @ @ @ @ o o O.O.O.@.o +.+.@.O.O.O.  O.@.@.  @.o +.+.o i % * ",
"@ $ r $ O o O.O.O.O.O.@.@.o o o O.O.O.  @.@.@.  @.@.o o ; r % * ",
"$ t / 9 @ o O.O.O.O.@.@.@.@.@.@.@.@.@.@.@.@.@.@.@.@.o 7 7 % k @ ",
"#  .y % o o O.O.@.@.@.@.@.@.@.@.@.@.@.@.+.+.+.+.+.+.o - 8 $ u w ",
"% / u o O.o @.@.@.@.@.@.O.O.@.@.o @.@.+.+.o.+.+.o.+.o O L t t % ",
"% i o O.o o @.@.@.@.@.O.O.O.O.@.@.o @.+.+.+.+.+.+.+.o 5 - i i O ",
"% % o o $ o @.@.@.@.@.@.O.O.@.@.@.@.o o o o o o o o % w 0 5 i O ",
"$ $ @ 4 * o O.O.O.O.@.@.@.@.@.@.@.O.O.O.o * O $ + % t t $ $ $ % ",
"@ % @ @ * o O.O.O.O.O.O.O.O.O.O.O.O.O.O.o + O @ O $ u i 9 O O O ",
"$ @ * * & & o O.O.o o o o O.O.o o o O.O.o > & O % # [ ' r # O * ",
"4 @ 4 & & & o O.O.o & & o O.O.o & o O.O.o h a & * N p t ' % $ * ",
"; * 4 & & & K o o : & > > o o & & = o o ) s a a + N M ` y O % O ",
"* * - - & 3 K s j = > > d 1 & & & = & s _ h = 5 w w ..y y $ * O ",
"* - - @ ; c V F A z 8 k i $ , * * 4 #.c S V % * u / y t Z 5 * * ",
"O - L * w # ` X.J % p p l % % * $ #.( #.z 3 w 0 u u y z % $ 2 ; ",
"* * - * % x y A J t i t l + $ $ % 4 #.L % , O w 0 i i w 8 W P 4 ",
"; ; - * $ t 6 z n t i % # * * % 5 @ * - * @ % * % % 0 2 E U P - ",
"* * * ; 4 $ z z 6 4 6 @ $ $ @ O % - - - * * @ @ @ $ % I U - I O ",
"* O * $ * 4 $ $ 0 4 4 @ $ 4 $ $ $ O O O ; * * 4 $ 5 5 * U U - O "
};
