/* XPM */
static char *cGl4aWwtZnJhbWUtMCUyODIlMjk_[] = {
/* columns rows colors chars-per-pixel */
"32 32 63 1 ",
"  c #367636",
". c #377B37",
"X c #3A733A",
"o c #3B733B",
"O c #387538",
"+ c #397439",
"@ c #387738",
"# c #3A753A",
"$ c #3B763B",
"% c #3C733C",
"& c #3C763C",
"* c #3C773C",
"= c #3F763F",
"- c #397839",
"; c #387B38",
": c #3B7E3B",
"> c #3B7B3C",
", c #3D783D",
"< c #3D7B3D",
"1 c #3F7B3F",
"2 c #3B7F3C",
"3 c #3C7D3C",
"4 c #3F7D3F",
"5 c #3E7E3E",
"6 c #3D7E42",
"7 c #407B40",
"8 c #407D40",
"9 c #447944",
"0 c #447F44",
"q c #3B803B",
"w c #3B823B",
"e c #3B833D",
"r c #3F813F",
"t c #3C833E",
"y c #3B843D",
"u c #3C853C",
"i c #3C843E",
"p c #398939",
"a c #3A8E3A",
"s c #3F883F",
"d c #3A903A",
"f c #3A963C",
"g c #3B8341",
"h c #3D8040",
"j c #3A8540",
"k c #3C8642",
"l c #3C8941",
"z c #3F8D41",
"x c #3E8F41",
"c c #428142",
"v c #438043",
"b c #438143",
"n c #408640",
"m c #428542",
"M c #408940",
"N c #408A41",
"B c #428A42",
"V c #418E42",
"C c #408F43",
"Z c #478D47",
"A c #429143",
"S c #439544",
"D c #439845",
/* pixels */
"  ,wwltw::-,:;5,r,w#,,#::#*,-,87",
"###:t,-:-i-5:-5:-$,5 5t#555,,t7,",
",-5-,,t2:,t:5,k#.:#u:55-#5,8#5,7",
",55,5it:w:5,i5,:.#i,:w,s,5v8-A,9",
"5t5k,5e::,$b,5t-kO2#eee,M7,C-5,7",
"*N#h,,-:::555wwu#h,ie2iii5z,,D,C",
"k:9t,mh55$,5::wwwk##:ewi5:75CAS,",
"59iee,h855#,t-::,h#O#w#5::tttNCN",
"5:::::55##--t5#--- 5ri@w$n5mwwt#",
",5:::w-:::::-w:,e#5###:5:ti,5:,m",
"5,,:@#--#::--:-:75,@-::-,,55-:w,",
",55:566#-#::-:::#t$:5---5$$-5::i",
"t*w*565#ttb,-wt#:#it:;-:--,,:5w-",
"#:5i-#5t5,i-*w-,5#*,#m55-v-=#-,,",
"::-55w:#5##55*5t;-:+0X#5#55tv5-,",
"::,::-:::-m#-2-55:#,5t ##$-5,,,i",
"e,5-#:-:::-5-:-#,-5#$:r*o-,,,,@-",
"eg#--w5::::,:,:55*$$7o*o$$-$55:,",
"-,5mt5*:::-5-5,,,-,,-o*$r#;55$,5",
",,5-k#:twd,#:,,,r5:-*$o$#,r5$-,5",
"-5 *$,ta8-,m555#5,.X+X$$$,,,,-:,",
"i#6*--N,-wia,i,::@X5X#*$$$55:::w",
"u##5,5#$tt5-v,i *,,$#o,$-,*,:5:,",
". s#b--::w-:p$X#5o@#:5:-55@$$-,-",
"-zCM5Zu,-:-,::# 5#--#.5#55Xiv55#",
"sssitf::,- 5 # #$#--@#w--t*%-,*t",
"-lCu@,w:-v,###  #5---.:-t $:*m##",
"--C-:tw:--:i5-#-##--#---#-w:5$n#",
"lMN-5,w:-#:-.-##2655 #--#::ew5m#",
"$=5r5n-:#,-#5:5-$*##,gk@.,eiwX #",
"#,*55nrt,,-##,,506.52$@i#:-i#,#X",
";:--#-#,#tm-,##,X#.##,$#Xkhm**#o"
};
