/* XPM */
static char *cGl4aWwtZnJhbWUtMCUyODMlMjk_[] = {
/* columns rows colors chars-per-pixel */
"32 32 72 1 ",
"  c #123512",
". c #163C16",
"X c #173E18",
"o c #1A3E1A",
"O c #223F1D",
"+ c #154D15",
"@ c #1C431C",
"# c #1E4A1E",
"$ c #175517",
"% c #185518",
"& c #195A19",
"* c #23441E",
"= c #1C6B1C",
"- c #1E4520",
"; c #1F4C20",
": c #214521",
"> c #224B22",
", c #264C23",
"< c #224B25",
"1 c #244924",
"2 c #244B24",
"3 c #264826",
"4 c #274827",
"5 c #264F26",
"6 c #2B4C21",
"7 c #284B25",
"8 c #2B4C27",
"9 c #2C4C27",
"0 c #294729",
"q c #284B28",
"w c #284C28",
"e c #2C4F29",
"r c #2C4C2B",
"t c #2F4C2B",
"y c #215121",
"u c #205520",
"i c #235623",
"p c #245024",
"a c #265127",
"s c #275227",
"d c #275327",
"f c #235424",
"g c #235526",
"h c #245524",
"j c #265726",
"k c #255825",
"l c #265926",
"z c #275927",
"x c #295129",
"c c #2B502B",
"v c #295429",
"b c #2A542A",
"n c #2B572B",
"m c #2D532D",
"M c #2D552D",
"N c #275B28",
"B c #285828",
"V c #2A592A",
"C c #2F592F",
"Z c #2E5A2E",
"A c #2C5D2C",
"S c #365620",
"D c #325227",
"F c #325532",
"G c #325B32",
"H c #395539",
"J c #3B5C3B",
"K c #2C602C",
"L c #2C632C",
"P c #2B672E",
"I c #336533",
"U c #3E603E",
/* pixels */
"##3#>ayhhVhHxNVafa,a>;>:*@@:#;ya",
"@#3#>>5yvP5shhfaa>f>fa>->>>:@7as",
":##@->##<Vxs5yM>#<<a>*5*@:30##av",
":5:::#;;yhxheay>>#p*#o>:-#-0@asv",
">>#<#-##;s3><>Xo>@:#o.X@#@:;o@yC",
">>#-O-#@svu;:@@@@#*@@oXX#::-@#>L",
"3#:o@y>yvsv#@@o@o-:-ooX#@:@:@@uh",
"#>@@o>>ahA@#*@@o::***@*@oo>X.#yV",
"##o.X@>5r>@@#*@>>>-3>#;@:333@#>i",
">:@@@>#6;>*@@xX:*>3#*#@@o:S3#@xA",
";:#o:>:5a,@@@@@.-33*,@@@o@87@@yz",
"<:#*:>:5x8*:@@@@@#>#a*@@@<3*@@>z",
"@#-:>::3hChq7@@@::#aq>>@:68>@@yz",
"Xo*:>@#;Dr:qhx@a#;#>>ms3>e>,*#xv",
"@.X@.o@#38*::h>;###qhhya5weae9Va",
"@ #Xooo@@3-:y@>*y@##sVu>83axxanz",
"@-@:XXX@@@:@@@@:@@###Cia55swm3Vx",
"#@oO@@@@@@o@@@@#&:#:HvaMx33swxvy",
"#--:--O@.@:3@+@hxf>Hhh>rz7>swqVv",
">-@:--:;X$:@a@2xCAGNaa>>suvee#VM",
">::oO--%@@:;>N>ufvVh#>>#;ysc>#ws",
">@#@o-3-*X>&yvqVAVzGa>>>ss3*##f>",
"g@OOO-*@X@.>FvxzvGJL*L>xsrwc>>fx",
";o@-*:oXXX o=AvLJGAMfUzasvs3<#Ms",
";@@ o@#@XX.-vV>LUAyV*zIcLNaACGCV",
"#X@  +@.@@@:yyahLhhu#5LsfZfs>xxP",
"<XXoooo. m-0#;yhhJVy#asxZfe#avvA",
">#Xo*X .XXOqm>>fvVG>%Lhzf>#;yaLG",
";-oXoo   ::qam*CGIAvyLVVzay;yyAG",
"-oo@o@o O3::uFGzGCAGuIPhuyy>y5VG",
";-o-@@@:o3:#qhMGAVzIzALzazvuayGV",
"+@.ooooO##e3>xuxzVzCvPAVyVvCxaCC"
};
