/* XPM */
static char *result[] = {
/* columns rows colors chars-per-pixel */
"64 64 8 1 ",
"  c #744E60",
". c #8E625E",
"X c #929E7C",
"o c #9BAB7B",
"O c #D79999",
"+ c #DAB78C",
"@ c #E6B4AC",
"# c #F2E4C2",
/* pixels */
"oooooooooooooooooooooooooooooooooooooooooooooooooooooooooooooooo",
"oooooooooooooooooooooooooooooooooooooooooooooooooooooooooooooooo",
"oooooooooooooooooooooooooooooooooooooooooooooooooooooooooooooooo",
"oooooooooooooooooooooooooooooooooooooooooooooooooooooooooooooooo",
"oooooooooooooooooooooooooooooooooooooooooooooooooooooooooooooooo",
"oooooooooooooooooooooooooooooooooooooooooooooooooooooooooooooooo",
"oooooooooooooooooooooooooooooooooooooooooooooooooooooooooooooooo",
"oooooooooooooooooooooooooooooooooooooooooooooooooooooooooooooooo",
"oooooooooooooooooooooooooooooooooooooooooooooooooooooooooooooooo",
"oooooooooooooooooooooooooooooooooooooooooooooooooooooooooooooooo",
"oooooooooooooooooooooooooooooooooooooooooooooooooooooooooooooooo",
"oooooooooooooooooooooooooooooooooooooooooooooooooooooooooooooooo",
"oooooooooooooooooooooooooooooooooooooooooooooooooooooooooooooooo",
"oooooooooooooooooooooooooooooooooooooooooooooooooooooooooooooooo",
"oooooooooooooooooooooooooooooooooooooooooooooooooooooooooooooooo",
"oooooooooooooooooooooooooooooooooooooooooooooooooooooooooooooooo",
"oooooooooooooooooooooooooooooooooooooooooooooooooooooooooooooooo",
"oooooooooooooooooooooooooooooooooooo..ooo...oooooooooooooooooooo",
"ooooooooooooooooooooooooooooooooooo.#.ooo.##.ooooooooooooooooooo",
"ooooooooooooooooooooooooooooooooooo.#.ooo.##.ooooooooooooooooooo",
"ooooooooooooooooooooooooooooooo...o.#.....##.oo...oooooooooooooo",
"oooooooooooooooooooooooooooooo.###..++++++###..###.ooooooooooooo",
"ooooooooooooooooooooooooo......#####++++++####.###.ooooooooooooo",
"oooooooooooooooooooooo...+++##.@@@#++++ +### #.@@@.ooooooooooooo",
"ooooooooooooooooooooo.++++++##.@@@#++++ +### #.@@@.ooooooooooooo",
"ooooooooooooooooooooo.++++++###....++++ #### ##...oooooooooooooo",
"ooooooooooooooooooooo.+++++####################.oooooooooooooooo",
"ooooooooooooooooooooo.+++###############@@@@@@@.oooooooooooooooo",
"oooooooooooooooooooo..+++###############@@@@@@@.oooooooooooooooo",
"oooooooooooooooooo..+.########++###.###@@O@@@O@.oooooooooooooooo",
"ooooooooooooooooo.++..######++++++##.##@@@@@@@@.oooooooooooooooo",
"ooooooooooooooooo...o.########++#####..........ooooooooooooooooo",
"ooooooooooooooooooooo.+++++#########++++.ooooooooooooooooooooooo",
"ooooooooooooooooooooo.+++++#########++++.ooooooooooooooooooooooo",
"ooooooooooooooooooooo.++++++++++++++++++.ooooooooooooooooooooooo",
"ooooooooooooooooooooXX.+++.....+++...+++.XXXoooooooooooooooooooo",
"ooooooooooooooooooXXXX.+++.XXX.+++.X.+++.XXXXooooooooooooooooooo",
"ooooooooooooooooooXXXX.+++.XXX.+++.X.+++.XXXXooooooooooooooooooo",
"ooooooooooooooooooXXXXX...XXXXX...XXX...XXXXXooooooooooooooooooo",
"ooooooooooooooooooooXXXXXXXXXXXXXXXXXXXXXXXXoooooooooooooooooooo",
"oooooooooooooooooooooooooooooooooooooooooooooooooooooooooooooooo",
"oooooooooooooooooooooooooooooooooooooooooooooooooooooooooooooooo",
"oooooooooooooooooooooooooooooooooooooooooooooooooooooooooooooooo",
"oooooooooooooooooooooooooooooooooooooooooooooooooooooooooooooooo",
"oooooooooooooooooooooooooooooooooooooooooooooooooooooooooooooooo",
"oooooooooooooooooooooooooooooooooooooooooooooooooooooooooooooooo",
"oooooooooooooooooooooooooooooooooooooooooooooooooooooooooooooooo",
"oooooooooooooooooooooooooooooooooooooooooooooooooooooooooooooooo",
"oooooooooooooooooooooooooooooooooooooooooooooooooooooooooooooooo",
"oooooooooooooooooooooooooooooooooooooooooooooooooooooooooooooooo",
"oooooooooooooooooooooooooooooooooooooooooooooooooooooooooooooooo",
"oooooooooooooooooooooooooooooooooooooooooooooooooooooooooooooooo",
"oooooooooooooooooooooooooooooooooooooooooooooooooooooooooooooooo",
"oooooooooooooooooooooooooooooooooooooooooooooooooooooooooooooooo",
"oooooooooooooooooooooooooooooooooooooooooooooooooooooooooooooooo",
"oooooooooooooooooooooooooooooooooooooooooooooooooooooooooooooooo",
"oooooooooooooooooooooooooooooooooooooooooooooooooooooooooooooooo",
"oooooooooooooooooooooooooooooooooooooooooooooooooooooooooooooooo",
"oooooooooooooooooooooooooooooooooooooooooooooooooooooooooooooooo",
"oooooooooooooooooooooooooooooooooooooooooooooooooooooooooooooooo",
"oooooooooooooooooooooooooooooooooooooooooooooooooooooooooooooooo",
"oooooooooooooooooooooooooooooooooooooooooooooooooooooooooooooooo",
"oooooooooooooooooooooooooooooooooooooooooooooooooooooooooooooooo",
"oooooooooooooooooooooooooooooooooooooooooooooooooooooooooooooooo"
};
