/* XPM */
static char *result[] = {
/* columns rows colors chars-per-pixel */
"64 64 3 1 ",
"  c #9BAB7B",
". c #A17492",
"X c #CC99CC",
/* pixels */
"                                                                ",
"                                                                ",
"                                                                ",
"                                                                ",
"                                                                ",
"                                                                ",
"                                                                ",
"                                                                ",
"                                                                ",
"                                                                ",
"                                                                ",
"                                                                ",
"                                                                ",
"                                                                ",
"                                                                ",
"                                                                ",
"                                                                ",
"                                                                ",
"                                                                ",
"                                                                ",
"                                                                ",
"                              ......                            ",
"                            ..........                          ",
"                          .....XXXX.....                        ",
"                         ....XXXXXXXX....                       ",
"                         ..XXXXXXXXXXXX..                       ",
"                        ...XX..XXXX..XX...                      ",
"                        ..XXX..XXXX..XXX..                      ",
"                       ...XXX..XXXX..XXX...                     ",
"                       ..XXXX..XXXX..XXXX..                     ",
"                       ..XXXX........XXXX..                     ",
"                       ..XXXX........XXXX..                     ",
"                       ..XXXX..XXXX..XXXX..                     ",
"                       ...XXX..XXXX..XXX...                     ",
"                        ..XXX..XXXX..XXX..                      ",
"                        ...XX..XXXX..XX...                      ",
"                         ..XXXXXXXXXXXX..                       ",
"                         ....XXXXXXXX....                       ",
"                          .....XXXX.....                        ",
"                            ..........                          ",
"                              ......                            ",
"                                                                ",
"                                                                ",
"                                                                ",
"                                                                ",
"                                                                ",
"                                                                ",
"                                                                ",
"                                                                ",
"                                                                ",
"                                                                ",
"                                                                ",
"                                                                ",
"                                                                ",
"                                                                ",
"                                                                ",
"                                                                ",
"                                                                ",
"                                                                ",
"                                                                ",
"                                                                ",
"                                                                ",
"                                                                ",
"                                                                "
};
